<svg width="25" height="25" viewBox="0 0 25 25" fill="none" xmlns="http://www.w3.org/2000/svg">
<g clip-path="url(#clip0_2_403)">
<path d="M1.56244 1.7011C-0.40214 3.74173 -5.69224e-05 5.90943 -5.69224e-05 12.4949C-5.69224e-05 17.9636 -0.954224 23.4459 4.03953 24.7365C5.5989 25.1376 19.4156 25.1376 20.9729 24.7344C23.052 24.198 24.7437 22.5115 24.9749 19.5709C25.0072 19.1605 25.0072 5.83652 24.9739 5.41777C24.7281 2.28548 22.7999 0.480267 20.2593 0.114642C19.677 0.0302668 19.5604 0.00526684 16.5729 5.8502e-05C5.97598 0.00526684 3.65307 -0.466608 1.56244 1.7011Z" fill="url(#paint0_linear_2_403)"/>
<path d="M12.4978 3.26965C8.71551 3.26965 5.12385 2.93319 3.75197 6.45403C3.1853 7.90819 3.2676 9.79674 3.2676 12.5009C3.2676 14.8738 3.19155 17.104 3.75197 18.5467C5.12072 22.0697 8.74155 21.7322 12.4957 21.7322C16.1176 21.7322 19.852 22.1092 21.2405 18.5467C21.8082 17.078 21.7249 15.2176 21.7249 12.5009C21.7249 8.89465 21.9238 6.56653 20.1749 4.81861C18.404 3.04778 16.0093 3.26965 12.4936 3.26965H12.4978ZM11.6707 4.93319C19.5603 4.92069 20.5645 4.04361 20.0103 16.228C19.8134 20.5374 16.5322 20.0644 12.4988 20.0644C5.14468 20.0644 4.93322 19.854 4.93322 12.4967C4.93322 5.05403 5.51655 4.93736 11.6707 4.93111V4.93319ZM17.4249 6.46548C16.8134 6.46548 16.3176 6.96132 16.3176 7.57278C16.3176 8.18424 16.8134 8.68007 17.4249 8.68007C18.0363 8.68007 18.5322 8.18424 18.5322 7.57278C18.5322 6.96132 18.0363 6.46548 17.4249 6.46548ZM12.4978 7.76028C9.88009 7.76028 7.75822 9.88319 7.75822 12.5009C7.75822 15.1186 9.88009 17.2405 12.4978 17.2405C15.1155 17.2405 17.2363 15.1186 17.2363 12.5009C17.2363 9.88319 15.1155 7.76028 12.4978 7.76028ZM12.4978 9.42382C16.5655 9.42382 16.5707 15.578 12.4978 15.578C8.43114 15.578 8.42489 9.42382 12.4978 9.42382Z" fill="white"/>
</g>
<defs>
<linearGradient id="paint0_linear_2_403" x1="1.61038" y1="23.4033" x2="24.8452" y2="3.29378" gradientUnits="userSpaceOnUse">
<stop stop-color="#FFDD55"/>
<stop offset="0.5" stop-color="#FF543E"/>
<stop offset="1" stop-color="#C837AB"/>
</linearGradient>
<clipPath id="clip0_2_403">
<rect width="25" height="25" fill="white"/>
</clipPath>
</defs>
</svg>
